<?xml version="1.0" standalone="no"?>
<!DOCTYPE svg PUBLIC "-//W3C//DTD SVG 20010904//EN"
 "http://www.w3.org/TR/2001/REC-SVG-20010904/DTD/svg10.dtd">
<svg version="1.0" xmlns="http://www.w3.org/2000/svg"
 width="741.000000pt" height="741.000000pt" viewBox="0 0 741.000000 741.000000"
 preserveAspectRatio="xMidYMid meet">
<metadata>
Created by potrace 1.14, written by Peter Selinger 2001-2017
</metadata>
<g transform="translate(0.000000,741.000000) scale(0.100000,-0.100000)"
fill="#000000" stroke="none">
<path d="M1689 7306 c-2 -2 -37 -7 -76 -10 -183 -15 -446 -72 -611 -132 -53
-19 -101 -37 -107 -38 -98 -27 -351 -170 -470 -267 -90 -73 -225 -212 -225
-232 0 -4 -9 -18 -21 -30 -55 -59 -139 -280 -156 -412 -11 -85 -6 -247 12
-365 1 -14 6 -45 9 -70 9 -67 59 -292 73 -330 3 -8 7 -20 9 -27 3 -16 24 -84
31 -103 4 -8 7 -17 8 -20 1 -3 7 -18 13 -33 7 -16 12 -30 12 -31 0 -2 7 -20
15 -40 8 -20 15 -37 14 -38 0 -2 12 -28 27 -58 15 -30 26 -57 25 -59 -2 -2 1
-7 6 -10 4 -3 19 -26 32 -51 13 -25 37 -66 53 -93 l30 -47 -20 -48 c-12 -27
-36 -82 -55 -123 -19 -41 -51 -119 -71 -174 -21 -55 -42 -109 -47 -120 -9 -21
-78 -255 -84 -284 -1 -9 -8 -34 -14 -56 -5 -22 -13 -56 -16 -75 -3 -19 -10
-51 -15 -70 -8 -32 -25 -134 -36 -220 -3 -19 -7 -48 -9 -65 -14 -104 -20 -229
-20 -435 0 -286 9 -388 50 -610 13 -69 26 -134 28 -145 89 -383 270 -757 511
-1055 178 -221 438 -454 649 -582 28 -18 54 -36 55 -40 2 -4 7 -8 12 -8 5 0
43 -20 85 -45 197 -117 529 -261 735 -320 25 -8 79 -23 120 -35 79 -23 79 -23
150 -41 57 -14 62 -15 195 -44 39 -8 131 -24 175 -31 19 -2 46 -7 60 -9 26 -5
225 -30 320 -40 257 -27 849 -27 1095 -1 89 10 173 19 195 21 24 2 155 21 215
31 26 5 196 38 250 49 16 4 252 65 305 79 8 3 69 22 135 44 593 197 1092 522
1445 942 103 122 236 325 312 475 60 119 134 291 143 333 2 9 15 50 29 89 26
76 80 305 91 383 3 25 10 70 15 100 5 30 12 93 17 140 9 102 10 575 0 645 -4
28 -9 75 -12 105 -3 30 -8 67 -10 81 -3 14 -7 41 -9 60 -3 19 -7 46 -10 59 -3
14 -8 42 -11 64 -3 21 -7 41 -9 45 -3 3 -7 26 -11 49 -8 59 -78 308 -115 417
-35 101 -101 263 -152 374 l-35 75 40 65 c53 86 143 267 152 301 0 3 6 15 13
27 6 12 13 30 15 40 2 10 9 30 15 45 22 53 81 261 96 338 22 111 27 143 31
176 2 22 7 66 11 99 12 91 9 293 -5 360 -43 204 -137 372 -295 527 -170 166
-412 305 -691 396 -154 51 -234 73 -325 88 -14 3 -47 9 -75 14 -129 26 -250
35 -445 35 -209 0 -287 -8 -407 -40 -259 -69 -415 -202 -528 -450 -28 -61 -39
-75 -53 -71 -29 9 -264 56 -307 61 -22 3 -74 10 -115 15 -217 28 -704 32 -846
6 -10 -2 -45 -7 -78 -11 -67 -8 -82 -10 -191 -30 -90 -17 -103 -19 -162 -33
l-41 -10 -28 62 c-71 160 -163 275 -279 352 -120 78 -197 105 -408 140 -38 7
-422 15 -428 10z"/>
</g>
</svg>
